<svg xmlns="http://www.w3.org/2000/svg" xmlns:xlink="http://www.w3.org/1999/xlink" width="3000" zoomAndPan="magnify" viewBox="0 0 2250 2250.000011" height="3000" preserveAspectRatio="xMidYMid meet" version="1.0"><defs><clipPath id="f37c120ae3"><path d="M 7.976562 565.886719 L 1125.746094 565.886719 L 1125.746094 1683.113281 L 7.976562 1683.113281 Z M 7.976562 565.886719 " clip-rule="nonzero"/></clipPath><clipPath id="e0d0ac6d17"><path d="M 380.765625 1650.839844 C 438.070312 1670.324219 503.21875 1683.113281 567.160156 1683.113281 C 631.105469 1683.113281 692.632812 1672.152344 749.332031 1652.664062 C 750.542969 1652.054688 751.746094 1652.054688 752.953125 1651.445312 C 965.890625 1573.496094 1122.730469 1367.65625 1125.746094 1132.84375 L 1125.746094 565.886719 L 7.976562 565.886719 L 7.976562 1132.421875 C 10.992188 1368.871094 165.414062 1574.714844 380.765625 1650.839844 Z M 380.765625 1650.839844 " clip-rule="nonzero"/></clipPath><clipPath id="5f25f2a66b"><path d="M 1124.253906 565.886719 L 2242.023438 565.886719 L 2242.023438 1683.113281 L 1124.253906 1683.113281 Z M 1124.253906 565.886719 " clip-rule="nonzero"/></clipPath><clipPath id="42af3e4a00"><path d="M 1497.046875 598.164062 C 1554.167969 578.675781 1619.5 565.886719 1683.441406 565.886719 C 1747.382812 565.886719 1808.914062 576.847656 1865.613281 596.335938 C 1866.820312 596.945312 1868.027344 596.945312 1869.234375 597.554688 C 2082.171875 675.503906 2239.007812 881.34375 2242.023438 1116.15625 L 2242.023438 1683.113281 L 1124.253906 1683.113281 L 1124.253906 1116.578125 C 1127.269531 880.128906 1281.695312 674.289062 1497.046875 598.164062 Z M 1497.046875 598.164062 " clip-rule="nonzero"/></clipPath></defs><g clip-path="url(#f37c120ae3)"><g clip-path="url(#e0d0ac6d17)"><path fill="#000000" d="M 7.976562 565.886719 L 1125.746094 565.886719 L 1125.746094 1683.113281 L 7.976562 1683.113281 Z M 7.976562 565.886719 " fill-opacity="1" fill-rule="nonzero"/></g></g><g clip-path="url(#5f25f2a66b)"><g clip-path="url(#42af3e4a00)"><path fill="#000000" d="M 1124.253906 565.886719 L 2242.023438 565.886719 L 2242.023438 1683.113281 L 1124.253906 1683.113281 Z M 1124.253906 565.886719 " fill-opacity="1" fill-rule="nonzero"/></g></g></svg>